<svg width="512" height="512" version="1.1" xmlns="http://www.w3.org/2000/svg" desc="Created with imagetracer.js version 1.2.6" ><path fill="rgb(0,0,0)" stroke="rgb(0,0,0)" stroke-width="1" opacity="1" d="M 246.5 0 L 265.5 0 L 268 2.5 L 378 224.5 L 378 227.5 L 389 249.5 L 418 305.5 L 429.5 321 Q 432.8 319.9 432 322.5 Q 439.6 333.4 452.5 339 L 457.5 338 L 461.5 340 L 462 338 L 476.5 336 Q 484.6 333.1 489 326.5 L 494.5 318 L 499.5 319 Q 500.9 316.4 505.5 317 L 512 321.5 L 512 340.5 L 507 350.5 L 507 355.5 Q 503.1 358.5 504 365 L 502 365.5 L 503 370 Q 500.3 368.9 501 371.5 L 502 375.5 L 500 385.5 L 500 395.5 L 505 418.5 L 512 429.5 L 512 444.5 L 505.5 450 L 486.5 451 L 480.5 453 L 465.5 455 L 442.5 464 L 394.5 498 L 363.5 509 L 356.5 509 L 348.5 512 L 290.5 512 L 287 509.5 L 286 507.5 L 286 495.5 L 291.5 489 L 294.5 490 L 296 487 L 304 486 Q 302.8 483 306.5 484 L 311.5 483 L 315 480.5 Q 314.2 477.9 317.5 479 L 338.5 467 L 355.5 451 L 359 449.5 Q 367.6 439.1 372 424.5 Q 374.6 416.6 373 404.5 L 372 403.5 L 372 396 Q 369 397.3 370 393.5 L 369 392.5 L 369 386 Q 365.3 387.4 367 381.5 L 366 378 Q 363 379.3 364 375.5 L 358 364.5 L 358 358.5 L 354 353.5 L 351 342.5 L 343 330.5 L 342 323 Q 339 324.3 340 320.5 L 319 282.5 L 311 264.5 L 311 261 Q 308.3 262.1 309 259.5 L 302 249.5 L 298.5 240 Q 296.3 240.8 297 238.5 L 290.5 225 Q 288.3 225.8 289 223.5 L 279.5 202 L 276 201 L 274 191 L 270 190 L 255 160.5 L 255 157 L 251 156 L 246.5 146 L 243 154 L 241 154.5 L 242 157.5 L 235 168.5 L 235 172.5 L 210 223.5 L 209 229.5 L 202 241.5 L 202 245.5 L 194 259.5 L 194 263.5 L 192 268.5 L 173 308.5 L 167 328.5 L 155 354.5 L 153 359.5 L 153 363.5 L 149 369.5 L 149 374.5 L 144 385.5 L 141 400.5 L 139 403.5 L 139 420.5 L 145 437.5 Q 151.8 448.7 161.5 457 L 182.5 473 L 198.5 480 L 201.5 483 L 204.5 483 L 220.5 490 L 225 494.5 L 226 507.5 L 221.5 512 L 163.5 512 L 139.5 507 L 132.5 503 L 128.5 503 Q 127.8 500.3 123.5 501 L 114.5 494 L 109.5 493 L 105.5 489 L 103.5 489 L 92.5 479 L 73 467 Q 74.3 463.7 69.5 465 L 65 463 L 64.5 461 L 61.5 462 L 55 459 Q 56.1 455.5 48.5 457 L 45 456 Q 46.1 453.3 43.5 454 L 38.5 455 L 36 454 L 35.5 452 L 31 453 Q 32.3 450 28.5 451 L 24.5 452 L 23.5 451 L 5.5 450 L 0 444.5 L 0 428.5 L 5 423.5 L 10 409.5 L 10 403.5 L 12 395.5 L 12 385.5 Q 9.3 383.7 11 377.5 L 11.5 376 Q 8.8 376.6 10 370.5 L 9 369.5 Q 9.7 361.5 8 357 Q 4 358.4 6 351.5 L 3 348.5 L 0 340.5 L 0 321.5 Q 3.5 316.5 12.5 317 L 22 321 Q 21.9 328.3 27.5 331 L 33 334 L 33.5 336 L 36.5 335 L 42.5 338 Q 51.1 336.9 55.5 340 L 56 338 L 61.5 339 L 64 335 L 68.5 334 L 83.5 319 L 86 319 L 105 284.5 L 110 274.5 L 110 270.5 L 244 2.5 L 246.5 0 Z " /><path fill="rgb(0,0,0)" stroke="rgb(0,0,0)" stroke-width="1" opacity="0" d="M 0 0 L 246 0.5 L 110 270.5 L 110 274.5 L 105 284.5 L 86 319 L 83.5 319 L 68.5 334 L 64 335 L 61.5 339 L 56 338 L 55.5 340 Q 51.1 336.9 42.5 338 L 34.5 335 L 33 335.5 Q 33.8 333.3 31.5 334 L 23 326.5 L 22 321 L 12.5 317 L 7.5 317 L 0.5 321 L 0 0 Z " /><path fill="rgb(0,0,0)" stroke="rgb(0,0,0)" stroke-width="1" opacity="0" d="M 266.5 0 L 512 0 L 512 320.5 L 509.5 319 L 502.5 317 L 498.5 319 L 494.5 318 Q 489.9 326.9 482.5 333 L 476.5 336 L 462 338 L 461.5 340 Q 459.2 337.3 453.5 338 L 451.5 339 Q 439.7 332.8 432 322.5 Q 432.8 319.9 429.5 321 L 418 305.5 L 389 249.5 L 353 173.5 L 266.5 0 Z " /><path fill="rgb(0,0,0)" stroke="rgb(0,0,0)" stroke-width="1" opacity="0" d="M 246.5 146 L 251 156 L 255 157 L 255 160.5 L 270 190 L 274 191 L 276 201 L 281 203.5 L 289 225 L 292 226.5 L 297 240 L 300 241.5 L 302 249.5 L 309 261 Q 312.3 259.7 311 264.5 Q 323.5 294.5 340 320.5 L 340 323 Q 343.7 321.6 342 327.5 Q 344.7 336.8 351 342.5 L 354 353.5 L 358 358.5 L 358 364.5 L 364 375.5 L 364 378 Q 367 376.8 366 380.5 L 367 386 Q 370.5 384.9 369 392.5 L 370 396 L 372 396.5 L 372 403.5 L 373 404.5 L 373 420.5 Q 368.5 439 357.5 451 L 355.5 451 L 338.5 467 L 322.5 477 L 315 479 L 313.5 482 L 304 484 Q 305.3 487.3 300.5 486 L 296 487 L 294.5 490 L 291.5 489 L 286 495.5 L 286 507.5 L 288.5 511 L 290 511.5 L 222.5 512 L 226 507.5 L 225 494.5 L 220.5 490 L 204.5 483 L 201.5 483 L 198.5 480 L 182.5 473 L 161.5 457 L 153 448.5 L 145 437.5 L 139 420.5 L 139 403.5 L 141 400.5 L 144 385.5 L 149 374.5 L 149 369.5 L 153 363.5 L 153 359.5 L 167 328.5 L 173 308.5 L 192 268.5 L 194 263.5 L 194 259.5 L 202 245.5 L 202 241.5 L 209 229.5 L 210 223.5 L 230 183.5 L 235 172.5 L 235 168.5 L 241 159.5 L 242 155.5 L 241.5 154 Q 243.8 154.8 243 152.5 L 246.5 146 Z " /><path fill="rgb(0,0,0)" stroke="rgb(0,0,0)" stroke-width="1" opacity="0" d="M 0.5 341 Q 1.3 348.3 6 351.5 L 6 357 Q 9.3 355.7 8 360.5 L 9 361.5 L 10 376 L 12 376.5 Q 9.3 378.3 11 384.5 L 12 385.5 L 12 395.5 L 8 415.5 L 5 423.5 L 0.5 428 L 0.5 341 Z " /><path fill="rgb(0,0,0)" stroke="rgb(0,0,0)" stroke-width="1" opacity="0" d="M 511.5 341 L 512 428.5 L 510 427.5 Q 504.3 419.7 502 408.5 L 501 396.5 L 500 395.5 L 500 385.5 L 501 384.5 L 502 372.5 L 501 370 Q 504.3 371.3 503 366.5 L 502.5 365 Q 505.9 365.9 504 360.5 L 507 355.5 L 507 350.5 L 511.5 341 Z " /><path fill="rgb(0,0,0)" stroke="rgb(0,0,0)" stroke-width="1" opacity="0" d="M 0.5 445 L 5.5 450 L 27.5 452 L 31 451 Q 29.7 454.3 34.5 453 L 36 452.5 Q 35.3 454.8 37.5 454 L 42.5 455 L 45 454 Q 43.8 457 47.5 456 L 48.5 457 L 55 457 Q 53.9 459.7 56.5 459 L 63.5 462 L 65 461.5 Q 64.3 463.8 66.5 463 Q 68.5 465.8 73 465 Q 71.9 467.7 74.5 467 L 96.5 482 L 103.5 489 L 105.5 489 L 109.5 493 L 114.5 494 L 123.5 501 Q 127.8 500.3 128.5 503 L 132.5 503 L 139.5 507 L 163 511.5 L 0 512 L 0.5 445 Z " /><path fill="rgb(0,0,0)" stroke="rgb(0,0,0)" stroke-width="1" opacity="0" d="M 511.5 445 L 512 512 L 349 511.5 L 356.5 509 L 363.5 509 L 394.5 498 L 442.5 464 L 465.5 455 L 480.5 453 L 486.5 451 L 505.5 450 L 511.5 445 Z " /></svg>