<svg width="512" height="512" version="1.1" xmlns="http://www.w3.org/2000/svg" desc="Created with imagetracer.js version 1.2.6" ><path fill="rgb(47,60,66)" stroke="rgb(47,60,66)" stroke-width="1" opacity="0.6627450980392157" d="M 251.5 0 L 254 0.5 L 247 4.5 L 112.5 274 L 112 272.5 L 246 4.5 L 249.5 1 L 251.5 0 Z " /><path fill="rgb(47,60,66)" stroke="rgb(47,60,66)" stroke-width="1" opacity="0.6627450980392157" d="M 258.5 0 Q 264.1 0.4 266 4.5 L 376 225.5 L 375 225.5 L 265 4.5 L 262.5 2 L 258.5 1 L 258.5 0 Z " /><path fill="rgb(47,60,66)" stroke="rgb(47,60,66)" stroke-width="1" opacity="0.6627450980392157" d="M 246.5 140 L 246 141.5 L 241.5 151 L 241 149.5 L 246.5 140 Z " /><path fill="rgb(47,60,66)" stroke="rgb(47,60,66)" stroke-width="1" opacity="0.6627450980392157" d="M 247.5 142 L 251 147.5 L 249 146.5 L 247.5 142 Z " /><path fill="rgb(47,60,66)" stroke="rgb(47,60,66)" stroke-width="1" opacity="0.6627450980392157" d="M 251.5 149 L 256 156.5 L 254 155.5 L 251 150.5 L 251.5 149 Z " /><path fill="rgb(47,60,66)" stroke="rgb(47,60,66)" stroke-width="1" opacity="0.6627450980392157" d="M 239.5 154 L 240 155.5 L 233.5 168 L 234 166.5 L 239.5 154 Z " /><path fill="rgb(47,60,66)" stroke="rgb(47,60,66)" stroke-width="1" opacity="0.6627450980392157" d="M 256.5 158 L 275 190.5 L 273 189.5 L 256.5 158 Z " /><path fill="rgb(47,60,66)" stroke="rgb(47,60,66)" stroke-width="1" opacity="0.6627450980392157" d="M 232.5 169 L 233 170.5 L 217.5 203 L 217 201.5 L 232.5 169 Z " /><path fill="rgb(47,60,66)" stroke="rgb(47,60,66)" stroke-width="1" opacity="0.6627450980392157" d="M 276.5 194 L 281 201.5 L 279 200.5 L 276.5 194 Z " /><path fill="rgb(47,60,66)" stroke="rgb(47,60,66)" stroke-width="1" opacity="0.6627450980392157" d="M 216.5 204 L 217 205.5 L 212.5 214 L 212 212.5 L 216.5 204 Z " /><path fill="rgb(47,60,66)" stroke="rgb(47,60,66)" stroke-width="1" opacity="0.6627450980392157" d="M 282.5 205 L 294 225.5 L 292 224.5 L 282.5 205 Z " /><path fill="rgb(47,60,66)" stroke="rgb(47,60,66)" stroke-width="1" opacity="0.6627450980392157" d="M 211.5 215 L 212 216.5 L 208.5 223 L 208 221.5 L 211.5 215 Z " /><path fill="rgb(47,60,66)" stroke="rgb(47,60,66)" stroke-width="1" opacity="0.6627450980392157" d="M 206.5 226 L 207 227.5 L 200.5 241 L 200 239.5 L 206.5 226 Z " /><path fill="rgb(47,60,66)" stroke="rgb(47,60,66)" stroke-width="1" opacity="0.6627450980392157" d="M 294.5 227 L 302 240.5 L 300 239.5 L 294 228.5 L 294.5 227 Z " /><path fill="rgb(47,60,66)" stroke="rgb(47,60,66)" stroke-width="1" opacity="0.6627450980392157" d="M 199.5 242 L 200 243.5 L 192.5 259 L 192 257.5 L 199.5 242 Z " /><path fill="rgb(47,60,66)" stroke="rgb(47,60,66)" stroke-width="1" opacity="0.6627450980392157" d="M 302.5 242 L 312 259.5 L 310 258.5 L 302 243.5 L 302.5 242 Z " /><path fill="rgb(47,60,66)" stroke="rgb(47,60,66)" stroke-width="1" opacity="0.6627450980392157" d="M 191.5 260 L 192 261.5 L 182.5 282 L 182 280.5 L 191.5 260 Z " /><path fill="rgb(47,60,66)" stroke="rgb(47,60,66)" stroke-width="1" opacity="0.6627450980392157" d="M 313.5 263 L 343 321.5 L 342 321.5 L 313 264.5 L 313.5 263 Z " /><path fill="rgb(47,60,66)" stroke="rgb(47,60,66)" stroke-width="1" opacity="0.6627450980392157" d="M 395.5 265 L 420 312.5 L 438.5 333 L 448 338.5 L 446.5 339 L 430 326.5 L 417 309.5 L 395.5 265 Z " /><path fill="rgb(47,60,66)" stroke="rgb(47,60,66)" stroke-width="1" opacity="0.6627450980392157" d="M 111.5 275 L 111 276.5 L 95 309.5 L 78.5 330 L 70.5 336 L 72.5 333 L 87 319.5 L 95 307.5 L 111.5 275 Z " /><path fill="rgb(47,60,66)" stroke="rgb(47,60,66)" stroke-width="1" opacity="0.6627450980392157" d="M 181.5 283 L 182 284.5 L 177.5 294 L 177 292.5 L 181.5 283 Z " /><path fill="rgb(47,60,66)" stroke="rgb(47,60,66)" stroke-width="1" opacity="0.6627450980392157" d="M 176.5 295 L 177 296.5 L 169.5 313 L 169 311.5 L 176.5 295 Z " /><path fill="rgb(47,60,66)" stroke="rgb(47,60,66)" stroke-width="1" opacity="0.6627450980392157" d="M 168.5 314 L 169 315.5 L 167.5 318 L 167 316.5 L 168.5 314 Z " /><path fill="rgb(47,60,66)" stroke="rgb(47,60,66)" stroke-width="1" opacity="0.6627450980392157" d="M 9.5 319 L 12 319.5 L 9.5 320 L 9.5 319 Z " /><path fill="rgb(47,60,66)" stroke="rgb(47,60,66)" stroke-width="1" opacity="0.6627450980392157" d="M 166.5 319 L 167 320.5 L 151.5 359 L 151 357.5 L 166.5 319 Z " /><path fill="rgb(47,60,66)" stroke="rgb(47,60,66)" stroke-width="1" opacity="0.6627450980392157" d="M 502.5 319 Q 508.3 320.3 511 324.5 L 512 328.5 L 511 328.5 Q 510.8 323.8 507.5 322 Q 502.5 321.9 502.5 319 Z " /><path fill="rgb(47,60,66)" stroke="rgb(47,60,66)" stroke-width="1" opacity="0.6627450980392157" d="M 6.5 320 L 8 320.5 L 2 324.5 L 0.5 329 L 0 326.5 L 4.5 321 L 6.5 320 Z " /><path fill="rgb(47,60,66)" stroke="rgb(47,60,66)" stroke-width="1" opacity="0.6627450980392157" d="M 13.5 320 L 20 323 Q 21 329.8 27.5 333 L 31 335.5 L 29.5 335 L 20 326.5 L 15.5 321 Q 12.5 321.5 13.5 320 Z " /><path fill="rgb(47,60,66)" stroke="rgb(47,60,66)" stroke-width="1" opacity="0.6627450980392157" d="M 496.5 320 L 499 320.5 Q 493.5 321 492 325.5 L 483.5 335 Q 476.3 340.8 463.5 341 L 463.5 340 Q 483.1 339.1 491 326.5 L 496.5 320 Z " /><path fill="rgb(47,60,66)" stroke="rgb(47,60,66)" stroke-width="1" opacity="0.6627450980392157" d="M 344.5 325 L 350 336.5 L 349 336.5 L 344 326.5 L 344.5 325 Z " /><path fill="rgb(47,60,66)" stroke="rgb(47,60,66)" stroke-width="1" opacity="0.6627450980392157" d="M 0.5 332 L 2 336.5 L 1 336.5 L 0.5 332 Z " /><path fill="rgb(47,60,66)" stroke="rgb(47,60,66)" stroke-width="1" opacity="0.6627450980392157" d="M 511.5 332 L 512 334.5 L 510.5 337 L 510 335.5 L 511.5 332 Z " /><path fill="rgb(47,60,66)" stroke="rgb(47,60,66)" stroke-width="1" opacity="0.6627450980392157" d="M 68.5 336 L 67.5 338 L 64.5 339 L 64.5 338 L 68.5 336 Z " /><path fill="rgb(47,60,66)" stroke="rgb(47,60,66)" stroke-width="1" opacity="0.6627450980392157" d="M 34.5 337 L 38 338.5 L 36.5 339 L 34.5 337 Z " /><path fill="rgb(47,60,66)" stroke="rgb(47,60,66)" stroke-width="1" opacity="0.6627450980392157" d="M 2.5 338 L 7 349.5 L 6 349.5 L 2.5 338 Z " /><path fill="rgb(47,60,66)" stroke="rgb(47,60,66)" stroke-width="1" opacity="0.6627450980392157" d="M 509.5 338 L 510 339.5 L 505.5 350 L 505 348.5 L 509.5 338 Z " /><path fill="rgb(47,60,66)" stroke="rgb(47,60,66)" stroke-width="1" opacity="0.6627450980392157" d="M 39.5 339 L 42 339.5 L 39.5 340 L 39.5 339 Z " /><path fill="rgb(47,60,66)" stroke="rgb(47,60,66)" stroke-width="1" opacity="0.6627450980392157" d="M 43.5 340 L 49 340.5 L 43.5 341 L 43.5 340 Z " /><path fill="rgb(47,60,66)" stroke="rgb(47,60,66)" stroke-width="1" opacity="0.6627450980392157" d="M 57.5 340 L 60 340.5 L 57.5 341 L 57.5 340 Z " /><path fill="rgb(47,60,66)" stroke="rgb(47,60,66)" stroke-width="1" opacity="0.6627450980392157" d="M 351.5 340 L 355 347.5 L 354 347.5 L 351.5 340 Z " /><path fill="rgb(47,60,66)" stroke="rgb(47,60,66)" stroke-width="1" opacity="0.6627450980392157" d="M 452.5 340 L 456 340.5 L 452.5 341 L 452.5 340 Z " /><path fill="rgb(47,60,66)" stroke="rgb(47,60,66)" stroke-width="1" opacity="0.6627450980392157" d="M 355.5 349 L 359 356.5 L 358 356.5 L 355.5 349 Z " /><path fill="rgb(47,60,66)" stroke="rgb(47,60,66)" stroke-width="1" opacity="0.6627450980392157" d="M 7.5 351 L 9 355.5 L 8 355.5 L 7.5 351 Z " /><path fill="rgb(47,60,66)" stroke="rgb(47,60,66)" stroke-width="1" opacity="0.6627450980392157" d="M 504.5 351 L 505 353.5 L 502.5 360 L 502 357.5 L 504.5 351 Z " /><path fill="rgb(47,60,66)" stroke="rgb(47,60,66)" stroke-width="1" opacity="0.6627450980392157" d="M 9.5 357 L 11 363.5 L 10 363.5 L 9.5 357 Z " /><path fill="rgb(47,60,66)" stroke="rgb(47,60,66)" stroke-width="1" opacity="0.6627450980392157" d="M 359.5 358 L 367 376.5 L 366 376.5 L 360 362.5 L 359.5 358 Z " /><path fill="rgb(47,60,66)" stroke="rgb(47,60,66)" stroke-width="1" opacity="0.6627450980392157" d="M 150.5 360 L 151 361.5 L 148.5 367 L 148 365.5 L 150.5 360 Z " /><path fill="rgb(47,60,66)" stroke="rgb(47,60,66)" stroke-width="1" opacity="0.6627450980392157" d="M 501.5 361 L 502 363.5 L 501 363.5 L 501.5 361 Z " /><path fill="rgb(47,60,66)" stroke="rgb(47,60,66)" stroke-width="1" opacity="0.6627450980392157" d="M 11.5 365 L 12 368.5 L 11 368.5 L 11.5 365 Z " /><path fill="rgb(47,60,66)" stroke="rgb(47,60,66)" stroke-width="1" opacity="0.6627450980392157" d="M 500.5 365 L 501 368.5 L 500 368.5 L 500.5 365 Z " /><path fill="rgb(47,60,66)" stroke="rgb(47,60,66)" stroke-width="1" opacity="0.6627450980392157" d="M 12.5 370 L 13 374.5 L 12 374.5 L 12.5 370 Z " /><path fill="rgb(47,60,66)" stroke="rgb(47,60,66)" stroke-width="1" opacity="0.6627450980392157" d="M 499.5 370 L 500 374.5 L 499 374.5 L 499.5 370 Z " /><path fill="rgb(47,60,66)" stroke="rgb(47,60,66)" stroke-width="1" opacity="0.6627450980392157" d="M 146.5 371 L 147 372.5 L 141.5 388 L 141 385.5 L 146.5 371 Z " /><path fill="rgb(47,60,66)" stroke="rgb(47,60,66)" stroke-width="1" opacity="0.6627450980392157" d="M 13.5 376 L 14 383.5 L 13 383.5 L 13.5 376 Z " /><path fill="rgb(47,60,66)" stroke="rgb(47,60,66)" stroke-width="1" opacity="0.6627450980392157" d="M 498.5 376 L 499 383.5 L 498 383.5 L 498.5 376 Z " /><path fill="rgb(47,60,66)" stroke="rgb(47,60,66)" stroke-width="1" opacity="0.6627450980392157" d="M 367.5 378 L 370 384.5 L 369 384.5 L 367.5 378 Z " /><path fill="rgb(47,60,66)" stroke="rgb(47,60,66)" stroke-width="1" opacity="0.6627450980392157" d="M 370.5 386 L 373 394.5 L 372 394.5 L 370.5 386 Z " /><path fill="rgb(47,60,66)" stroke="rgb(47,60,66)" stroke-width="1" opacity="0.6627450980392157" d="M 497.5 388 L 498 392.5 L 497 392.5 L 497.5 388 Z " /><path fill="rgb(47,60,66)" stroke="rgb(47,60,66)" stroke-width="1" opacity="0.6627450980392157" d="M 14.5 389 L 15 392.5 L 14 392.5 L 14.5 389 Z " /><path fill="rgb(47,60,66)" stroke="rgb(47,60,66)" stroke-width="1" opacity="0.6627450980392157" d="M 140.5 389 L 141 391.5 L 139.5 395 L 139 392.5 L 140.5 389 Z " /><path fill="rgb(47,60,66)" stroke="rgb(47,60,66)" stroke-width="1" opacity="0.6627450980392157" d="M 138.5 396 L 139 398.5 L 137.5 403 L 137 399.5 L 138.5 396 Z " /><path fill="rgb(47,60,66)" stroke="rgb(47,60,66)" stroke-width="1" opacity="0.6627450980392157" d="M 373.5 396 L 375 402.5 L 374 402.5 L 373.5 396 Z " /><path fill="rgb(47,60,66)" stroke="rgb(47,60,66)" stroke-width="1" opacity="0.6627450980392157" d="M 13.5 397 L 14 403.5 L 13 403.5 L 13.5 397 Z " /><path fill="rgb(47,60,66)" stroke="rgb(47,60,66)" stroke-width="1" opacity="0.6627450980392157" d="M 498.5 397 L 499 403.5 L 498 403.5 L 498.5 397 Z " /><path fill="rgb(47,60,66)" stroke="rgb(47,60,66)" stroke-width="1" opacity="0.6627450980392157" d="M 12.5 405 L 13 408.5 L 12 408.5 L 12.5 405 Z " /><path fill="rgb(47,60,66)" stroke="rgb(47,60,66)" stroke-width="1" opacity="0.6627450980392157" d="M 136.5 405 L 137 418.5 L 136 418.5 L 136.5 405 Z " /><path fill="rgb(47,60,66)" stroke="rgb(47,60,66)" stroke-width="1" opacity="0.6627450980392157" d="M 375.5 405 L 376 418.5 L 375 418.5 L 375.5 405 Z " /><path fill="rgb(47,60,66)" stroke="rgb(47,60,66)" stroke-width="1" opacity="0.6627450980392157" d="M 499.5 405 L 500 408.5 L 499 408.5 L 499.5 405 Z " /><path fill="rgb(47,60,66)" stroke="rgb(47,60,66)" stroke-width="1" opacity="0.6627450980392157" d="M 11.5 410 L 12 412.5 L 5.5 426 L 6 424.5 L 11.5 410 Z " /><path fill="rgb(47,60,66)" stroke="rgb(47,60,66)" stroke-width="1" opacity="0.6627450980392157" d="M 500.5 410 Q 503.5 423 511 431.5 L 509 430.5 Q 501.8 422.1 500.5 410 Z " /><path fill="rgb(47,60,66)" stroke="rgb(47,60,66)" stroke-width="1" opacity="0.6627450980392157" d="M 137.5 420 L 138 423.5 L 137 423.5 L 137.5 420 Z " /><path fill="rgb(47,60,66)" stroke="rgb(47,60,66)" stroke-width="1" opacity="0.6627450980392157" d="M 374.5 420 L 375 423.5 L 374 423.5 L 374.5 420 Z " /><path fill="rgb(47,60,66)" stroke="rgb(47,60,66)" stroke-width="1" opacity="0.6627450980392157" d="M 138.5 425 L 142 434.5 L 141 434.5 L 138 427.5 L 138.5 425 Z " /><path fill="rgb(47,60,66)" stroke="rgb(47,60,66)" stroke-width="1" opacity="0.6627450980392157" d="M 373.5 425 L 374 427.5 Q 366.5 447.5 351.5 460 Q 338.2 471.7 321.5 480 L 322.5 478 Q 342.6 468.6 357 453.5 Q 368.4 442.4 373.5 425 Z " /><path fill="rgb(47,60,66)" stroke="rgb(47,60,66)" stroke-width="1" opacity="0.6627450980392157" d="M 4.5 427 L 3 429.5 L 0.5 435 L 0 432.5 L 4.5 427 Z " /><path fill="rgb(47,60,66)" stroke="rgb(47,60,66)" stroke-width="1" opacity="0.6627450980392157" d="M 511.5 433 L 512 435.5 L 511 435.5 L 511.5 433 Z " /><path fill="rgb(47,60,66)" stroke="rgb(47,60,66)" stroke-width="1" opacity="0.6627450980392157" d="M 142.5 436 Q 149.1 447.9 158.5 457 L 182 474.5 L 180.5 474 Q 164.6 465.4 153 452.5 L 144 440.5 L 142.5 436 Z " /><path fill="rgb(47,60,66)" stroke="rgb(47,60,66)" stroke-width="1" opacity="0.6627450980392157" d="M 0.5 439 L 4.5 446 L 9 447.5 L 6.5 448 L 1 443.5 L 0.5 439 Z " /><path fill="rgb(47,60,66)" stroke="rgb(47,60,66)" stroke-width="1" opacity="0.6627450980392157" d="M 511.5 439 L 512 441.5 L 507.5 447 L 503.5 448 L 503.5 447 Q 508.3 446.8 510 443.5 L 511.5 439 Z " /><path fill="rgb(47,60,66)" stroke="rgb(47,60,66)" stroke-width="1" opacity="0.6627450980392157" d="M 13.5 448 L 23 448.5 L 13.5 449 L 13.5 448 Z " /><path fill="rgb(47,60,66)" stroke="rgb(47,60,66)" stroke-width="1" opacity="0.6627450980392157" d="M 489.5 448 L 499 448.5 L 489.5 449 L 489.5 448 Z " /><path fill="rgb(47,60,66)" stroke="rgb(47,60,66)" stroke-width="1" opacity="0.6627450980392157" d="M 25.5 449 L 30 449.5 L 25.5 450 L 25.5 449 Z " /><path fill="rgb(47,60,66)" stroke="rgb(47,60,66)" stroke-width="1" opacity="0.6627450980392157" d="M 482.5 449 L 488 449.5 L 482.5 450 L 482.5 449 Z " /><path fill="rgb(47,60,66)" stroke="rgb(47,60,66)" stroke-width="1" opacity="0.6627450980392157" d="M 32.5 450 L 36 450.5 L 32.5 451 L 32.5 450 Z " /><path fill="rgb(47,60,66)" stroke="rgb(47,60,66)" stroke-width="1" opacity="0.6627450980392157" d="M 476.5 450 L 481 450.5 L 476.5 451 L 476.5 450 Z " /><path fill="rgb(47,60,66)" stroke="rgb(47,60,66)" stroke-width="1" opacity="0.6627450980392157" d="M 37.5 451 L 45 452.5 L 41.5 453 L 37.5 452 L 37.5 451 Z " /><path fill="rgb(47,60,66)" stroke="rgb(47,60,66)" stroke-width="1" opacity="0.6627450980392157" d="M 471.5 451 L 475 451.5 L 471.5 452 L 471.5 451 Z " /><path fill="rgb(47,60,66)" stroke="rgb(47,60,66)" stroke-width="1" opacity="0.6627450980392157" d="M 467.5 452 L 470 452.5 L 467.5 453 L 467.5 452 Z " /><path fill="rgb(47,60,66)" stroke="rgb(47,60,66)" stroke-width="1" opacity="0.6627450980392157" d="M 46.5 453 L 52 454.5 L 49.5 455 L 46.5 454 L 46.5 453 Z " /><path fill="rgb(47,60,66)" stroke="rgb(47,60,66)" stroke-width="1" opacity="0.6627450980392157" d="M 460.5 454 L 463 454.5 L 457.5 456 L 457.5 455 L 460.5 454 Z " /><path fill="rgb(47,60,66)" stroke="rgb(47,60,66)" stroke-width="1" opacity="0.6627450980392157" d="M 56.5 456 L 65 459.5 L 63.5 460 L 56.5 457 L 56.5 456 Z " /><path fill="rgb(47,60,66)" stroke="rgb(47,60,66)" stroke-width="1" opacity="0.6627450980392157" d="M 454.5 456 L 456 456.5 L 439.5 464 L 439.5 463 L 454.5 456 Z " /><path fill="rgb(47,60,66)" stroke="rgb(47,60,66)" stroke-width="1" opacity="0.6627450980392157" d="M 66.5 460 L 73 463.5 L 71.5 463 L 66.5 461 L 66.5 460 Z " /><path fill="rgb(47,60,66)" stroke="rgb(47,60,66)" stroke-width="1" opacity="0.6627450980392157" d="M 74.5 464 L 100 482.5 L 97.5 481 L 75.5 466 L 74.5 464 Z " /><path fill="rgb(47,60,66)" stroke="rgb(47,60,66)" stroke-width="1" opacity="0.6627450980392157" d="M 437.5 464 L 436.5 466 L 397.5 493 L 398.5 491 L 437.5 464 Z " /><path fill="rgb(47,60,66)" stroke="rgb(47,60,66)" stroke-width="1" opacity="0.6627450980392157" d="M 183.5 475 L 191 479.5 L 189.5 479 Q 183.9 478.2 183.5 475 Z " /><path fill="rgb(47,60,66)" stroke="rgb(47,60,66)" stroke-width="1" opacity="0.6627450980392157" d="M 192.5 480 L 199 483.5 L 197.5 483 Q 192.5 482.9 192.5 480 Z " /><path fill="rgb(47,60,66)" stroke="rgb(47,60,66)" stroke-width="1" opacity="0.6627450980392157" d="M 319.5 480 L 318.5 482 L 315.5 483 L 315.5 482 L 319.5 480 Z " /><path fill="rgb(47,60,66)" stroke="rgb(47,60,66)" stroke-width="1" opacity="0.6627450980392157" d="M 101.5 483 L 107 487.5 L 105.5 487 L 101.5 483 Z " /><path fill="rgb(47,60,66)" stroke="rgb(47,60,66)" stroke-width="1" opacity="0.6627450980392157" d="M 202.5 485 L 208 487.5 L 206.5 488 L 202.5 486 L 202.5 485 Z " /><path fill="rgb(47,60,66)" stroke="rgb(47,60,66)" stroke-width="1" opacity="0.6627450980392157" d="M 308.5 485 L 310 485.5 L 304.5 488 L 304.5 487 L 308.5 485 Z " /><path fill="rgb(47,60,66)" stroke="rgb(47,60,66)" stroke-width="1" opacity="0.6627450980392157" d="M 108.5 488 L 115 492.5 L 113.5 492 Q 108.9 490.8 108.5 488 Z " /><path fill="rgb(47,60,66)" stroke="rgb(47,60,66)" stroke-width="1" opacity="0.6627450980392157" d="M 209.5 488 L 216 490.5 L 214.5 491 L 209.5 489 L 209.5 488 Z " /><path fill="rgb(47,60,66)" stroke="rgb(47,60,66)" stroke-width="1" opacity="0.6627450980392157" d="M 301.5 488 L 303 488.5 L 296.5 491 L 296.5 490 L 301.5 488 Z " /><path fill="rgb(47,60,66)" stroke="rgb(47,60,66)" stroke-width="1" opacity="0.6627450980392157" d="M 217.5 491 L 223 495.5 L 224 499.5 L 223 499.5 Q 222.6 494 218.5 492 L 217.5 491 Z " /><path fill="rgb(47,60,66)" stroke="rgb(47,60,66)" stroke-width="1" opacity="0.6627450980392157" d="M 293.5 491 L 295 491.5 L 290 495.5 L 288.5 500 L 288 497.5 L 293.5 491 Z " /><path fill="rgb(47,60,66)" stroke="rgb(47,60,66)" stroke-width="1" opacity="0.6627450980392157" d="M 116.5 493 L 127 498.5 L 125.5 499 L 117.5 495 L 116.5 493 Z " /><path fill="rgb(47,60,66)" stroke="rgb(47,60,66)" stroke-width="1" opacity="0.6627450980392157" d="M 395.5 493 L 394.5 495 L 380.5 501 L 380.5 500 L 395.5 493 Z " /><path fill="rgb(47,60,66)" stroke="rgb(47,60,66)" stroke-width="1" opacity="0.6627450980392157" d="M 128.5 499 L 132 500.5 L 130.5 501 L 128.5 499 Z " /><path fill="rgb(47,60,66)" stroke="rgb(47,60,66)" stroke-width="1" opacity="0.6627450980392157" d="M 133.5 501 L 148 505.5 L 145.5 506 L 135.5 503 L 133.5 501 Z " /><path fill="rgb(47,60,66)" stroke="rgb(47,60,66)" stroke-width="1" opacity="0.6627450980392157" d="M 377.5 501 L 379 501.5 L 368.5 505 L 368.5 504 L 377.5 501 Z " /><path fill="rgb(47,60,66)" stroke="rgb(47,60,66)" stroke-width="1" opacity="0.6627450980392157" d="M 223.5 503 L 224 505.5 L 221.5 509 Q 219.6 512.6 213.5 512 L 213.5 511 Q 220.8 510.8 223 505.5 L 223.5 503 Z " /><path fill="rgb(47,60,66)" stroke="rgb(47,60,66)" stroke-width="1" opacity="0.6627450980392157" d="M 288.5 503 Q 289 508.5 293.5 510 L 298 511.5 L 295.5 512 L 290 508.5 Q 287 506.7 288.5 503 Z " /><path fill="rgb(47,60,66)" stroke="rgb(47,60,66)" stroke-width="1" opacity="0.6627450980392157" d="M 364.5 505 L 367 505.5 L 364.5 506 L 364.5 505 Z " /><path fill="rgb(47,60,66)" stroke="rgb(47,60,66)" stroke-width="1" opacity="0.6627450980392157" d="M 149.5 506 L 158 507.5 L 153.5 508 L 149.5 507 L 149.5 506 Z " /><path fill="rgb(47,60,66)" stroke="rgb(47,60,66)" stroke-width="1" opacity="0.6627450980392157" d="M 359.5 506 L 363 506.5 L 354.5 508 L 354.5 507 L 359.5 506 Z " /><path fill="rgb(47,60,66)" stroke="rgb(47,60,66)" stroke-width="1" opacity="0.6627450980392157" d="M 159.5 508 L 164 508.5 L 159.5 509 L 159.5 508 Z " /><path fill="rgb(47,60,66)" stroke="rgb(47,60,66)" stroke-width="1" opacity="0.6627450980392157" d="M 348.5 508 L 353 508.5 L 348.5 509 L 348.5 508 Z " /><path fill="rgb(47,60,66)" stroke="rgb(47,60,66)" stroke-width="1" opacity="0.6627450980392157" d="M 165.5 509 L 171 509.5 L 165.5 510 L 165.5 509 Z " /><path fill="rgb(47,60,66)" stroke="rgb(47,60,66)" stroke-width="1" opacity="0.6627450980392157" d="M 341.5 509 L 347 509.5 L 341.5 510 L 341.5 509 Z " /><path fill="rgb(47,60,66)" stroke="rgb(47,60,66)" stroke-width="1" opacity="0.6627450980392157" d="M 172.5 510 L 181 510.5 L 172.5 511 L 172.5 510 Z " /><path fill="rgb(47,60,66)" stroke="rgb(47,60,66)" stroke-width="1" opacity="0.6627450980392157" d="M 331.5 510 L 339 510.5 L 331.5 511 L 331.5 510 Z " /><path fill="rgb(47,60,66)" stroke="rgb(47,60,66)" stroke-width="1" opacity="0.6627450980392157" d="M 184.5 511 L 200 511.5 L 184.5 512 L 184.5 511 Z " /><path fill="rgb(47,60,66)" stroke="rgb(47,60,66)" stroke-width="1" opacity="0.6627450980392157" d="M 312.5 511 L 328 511.5 L 312.5 512 L 312.5 511 Z " /><path fill="rgb(0,0,0)" stroke="rgb(0,0,0)" stroke-width="1" opacity="0" d="M 0 0 L 251 0.5 L 246 4.5 L 95 307.5 Q 86.6 322.6 73.5 333 Q 65.5 341 49.5 341 L 38.5 339 L 31.5 336 L 21 326.5 L 20 323 L 15.5 320 L 9.5 319 Q 3.8 320.3 1 324.5 L 0.5 326 L 0 0 Z " /><path fill="rgb(0,0,0)" stroke="rgb(0,0,0)" stroke-width="1" opacity="0" d="M 261.5 0 L 512 0 L 512 325.5 L 511 325.5 L 507.5 321 L 502.5 319 Q 501.2 321.3 496.5 320 L 491 325.5 L 483.5 334 Q 473.4 340.9 456.5 341 Q 436.3 335.7 426 320.5 L 417 307.5 L 266 4.5 L 262.5 1 L 261.5 0 Z " /><path fill="rgb(0,0,0)" stroke="rgb(0,0,0)" stroke-width="1" opacity="0" d="M 246.5 141 L 302 241.5 L 351 339.5 L 370 385.5 L 375 403.5 L 375 419.5 Q 369.2 444.2 352.5 458 L 327.5 476 Q 312.6 485.6 293.5 491 L 289 495.5 Q 286.7 498.7 288 505.5 L 291.5 510 L 295 511.5 L 217.5 512 L 217.5 511 L 223 507.5 Q 225.3 504.3 224 497.5 L 218.5 491 Q 180.1 478.9 155 453.5 Q 145.6 443.9 140 430.5 L 137 419.5 L 137 403.5 L 148 367.5 L 169 313.5 L 207 225.5 L 246.5 141 Z " /><path fill="rgb(0,0,0)" stroke="rgb(0,0,0)" stroke-width="1" opacity="0" d="M 0.5 335 L 7 350.5 L 11 364.5 L 13 375.5 L 13 383.5 L 14 384.5 L 14 396.5 L 10 415.5 L 5 426.5 L 0.5 432 L 0.5 335 Z " /><path fill="rgb(0,0,0)" stroke="rgb(0,0,0)" stroke-width="1" opacity="0" d="M 511.5 335 L 512 432.5 L 511 432.5 Q 503.8 422.7 500 409.5 L 499 397.5 L 498 396.5 L 498 384.5 L 499 383.5 L 499 375.5 L 502 360.5 L 511.5 335 Z " /><path fill="rgb(0,0,0)" stroke="rgb(0,0,0)" stroke-width="1" opacity="0" d="M 0.5 442 L 4.5 447 L 13.5 449 L 31.5 450 L 55.5 456 L 73.5 464 L 104.5 487 L 125.5 499 L 153.5 508 L 171.5 510 L 172.5 511 L 184 511.5 L 0 512 L 0.5 442 Z " /><path fill="rgb(0,0,0)" stroke="rgb(0,0,0)" stroke-width="1" opacity="0" d="M 511.5 442 L 512 512 L 328 511.5 L 358.5 508 L 376.5 503 L 404.5 489 Q 422.6 473.1 444.5 461 L 470.5 452 L 487.5 450 L 488.5 449 L 505.5 448 L 511 443.5 L 511.5 442 Z " /><path fill="rgb(48,60,66)" stroke="rgb(48,60,66)" stroke-width="1" opacity="0.996078431372549" d="M 254.5 0 L 258 0.5 L 254.5 1 L 254.5 0 Z " /><path fill="rgb(48,60,66)" stroke="rgb(48,60,66)" stroke-width="1" opacity="0.996078431372549" d="M 249.5 2 L 247.5 5 L 249.5 2 Z " /><path fill="rgb(48,60,66)" stroke="rgb(48,60,66)" stroke-width="1" opacity="0.996078431372549" d="M 262.5 2 L 264.5 5 L 262.5 2 Z " /><path fill="rgb(48,60,66)" stroke="rgb(48,60,66)" stroke-width="1" opacity="0.996078431372549" d="M 89.5 317 L 88.5 319 L 89.5 317 Z " /><path fill="rgb(48,60,66)" stroke="rgb(48,60,66)" stroke-width="1" opacity="0.996078431372549" d="M 422.5 317 L 423.5 319 L 422.5 317 Z " /><path fill="rgb(48,60,66)" stroke="rgb(48,60,66)" stroke-width="1" opacity="0.996078431372549" d="M 4.5 322 L 2.5 325 L 4.5 322 Z " /><path fill="rgb(48,60,66)" stroke="rgb(48,60,66)" stroke-width="1" opacity="0.996078431372549" d="M 85.5 322 L 82.5 326 L 85.5 322 Z " /><path fill="rgb(48,60,66)" stroke="rgb(48,60,66)" stroke-width="1" opacity="0.996078431372549" d="M 426.5 322 L 429.5 326 L 426.5 322 Z " /><path fill="rgb(48,60,66)" stroke="rgb(48,60,66)" stroke-width="1" opacity="0.996078431372549" d="M 507.5 322 L 509.5 325 L 507.5 322 Z " /><path fill="rgb(48,60,66)" stroke="rgb(48,60,66)" stroke-width="1" opacity="0.996078431372549" d="M 21.5 328 L 26.5 334 L 21.5 328 Z " /><path fill="rgb(48,60,66)" stroke="rgb(48,60,66)" stroke-width="1" opacity="0.996078431372549" d="M 490.5 328 L 485.5 334 L 490.5 328 Z " /><path fill="rgb(48,60,66)" stroke="rgb(48,60,66)" stroke-width="1" opacity="0.996078431372549" d="M 0.5 329 L 1 331.5 L 0 331.5 L 0.5 329 Z " /><path fill="rgb(48,60,66)" stroke="rgb(48,60,66)" stroke-width="1" opacity="0.996078431372549" d="M 433.5 329 L 436.5 333 L 433.5 329 Z " /><path fill="rgb(48,60,66)" stroke="rgb(48,60,66)" stroke-width="1" opacity="0.996078431372549" d="M 511.5 329 L 512 331.5 L 511 331.5 L 511.5 329 Z " /><path fill="rgb(48,60,66)" stroke="rgb(48,60,66)" stroke-width="1" opacity="0.996078431372549" d="M 77.5 330 L 75.5 333 L 77.5 330 Z " /><path fill="rgb(48,60,66)" stroke="rgb(48,60,66)" stroke-width="1" opacity="0.996078431372549" d="M 72.5 334 L 71.5 336 L 72.5 334 Z " /><path fill="rgb(48,60,66)" stroke="rgb(48,60,66)" stroke-width="1" opacity="0.996078431372549" d="M 439.5 334 L 440.5 336 L 439.5 334 Z " /><path fill="rgb(48,60,66)" stroke="rgb(48,60,66)" stroke-width="1" opacity="0.996078431372549" d="M 49.5 341 L 56 341.5 L 49.5 342 L 49.5 341 Z " /><path fill="rgb(48,60,66)" stroke="rgb(48,60,66)" stroke-width="1" opacity="0.996078431372549" d="M 456.5 341 L 462 341.5 L 456.5 342 L 456.5 341 Z " /><path fill="rgb(48,60,66)" stroke="rgb(48,60,66)" stroke-width="1" opacity="0.996078431372549" d="M 14.5 384 L 15 388.5 L 14 388.5 L 14.5 384 Z " /><path fill="rgb(48,60,66)" stroke="rgb(48,60,66)" stroke-width="1" opacity="0.996078431372549" d="M 497.5 384 L 498 387.5 L 497 387.5 L 497.5 384 Z " /><path fill="rgb(48,60,66)" stroke="rgb(48,60,66)" stroke-width="1" opacity="0.996078431372549" d="M 14.5 393 L 15 396.5 L 14 396.5 L 14.5 393 Z " /><path fill="rgb(48,60,66)" stroke="rgb(48,60,66)" stroke-width="1" opacity="0.996078431372549" d="M 497.5 393 L 498 396.5 L 497 396.5 L 497.5 393 Z " /><path fill="rgb(48,60,66)" stroke="rgb(48,60,66)" stroke-width="1" opacity="0.996078431372549" d="M 4.5 428 L 3.5 430 L 4.5 428 Z " /><path fill="rgb(48,60,66)" stroke="rgb(48,60,66)" stroke-width="1" opacity="0.996078431372549" d="M 507.5 428 L 508.5 430 L 507.5 428 Z " /><path fill="rgb(48,60,66)" stroke="rgb(48,60,66)" stroke-width="1" opacity="0.996078431372549" d="M 0.5 435 L 1 438.5 L 0 438.5 L 0.5 435 Z " /><path fill="rgb(48,60,66)" stroke="rgb(48,60,66)" stroke-width="1" opacity="0.996078431372549" d="M 511.5 436 L 512 438.5 L 511 438.5 L 511.5 436 Z " /><path fill="rgb(48,60,66)" stroke="rgb(48,60,66)" stroke-width="1" opacity="0.996078431372549" d="M 2.5 443 L 4.5 446 L 2.5 443 Z " /><path fill="rgb(48,60,66)" stroke="rgb(48,60,66)" stroke-width="1" opacity="0.996078431372549" d="M 509.5 443 L 507.5 446 L 509.5 443 Z " /><path fill="rgb(48,60,66)" stroke="rgb(48,60,66)" stroke-width="1" opacity="0.996078431372549" d="M 9.5 447 L 12 447.5 L 9.5 448 L 9.5 447 Z " /><path fill="rgb(48,60,66)" stroke="rgb(48,60,66)" stroke-width="1" opacity="0.996078431372549" d="M 500.5 447 L 503 447.5 L 500.5 448 L 500.5 447 Z " /><path fill="rgb(48,60,66)" stroke="rgb(48,60,66)" stroke-width="1" opacity="0.996078431372549" d="M 150.5 449 L 152.5 452 L 150.5 449 Z " /><path fill="rgb(48,60,66)" stroke="rgb(48,60,66)" stroke-width="1" opacity="0.996078431372549" d="M 361.5 449 L 359.5 452 L 361.5 449 Z " /><path fill="rgb(48,60,66)" stroke="rgb(48,60,66)" stroke-width="1" opacity="0.996078431372549" d="M 160.5 459 L 163.5 463 L 160.5 459 Z " /><path fill="rgb(48,60,66)" stroke="rgb(48,60,66)" stroke-width="1" opacity="0.996078431372549" d="M 350.5 460 L 348.5 463 L 350.5 460 Z " /><path fill="rgb(48,60,66)" stroke="rgb(48,60,66)" stroke-width="1" opacity="0.996078431372549" d="M 167.5 465 L 168.5 467 L 167.5 465 Z " /><path fill="rgb(48,60,66)" stroke="rgb(48,60,66)" stroke-width="1" opacity="0.996078431372549" d="M 344.5 465 L 343.5 467 L 344.5 465 Z " /><path fill="rgb(48,60,66)" stroke="rgb(48,60,66)" stroke-width="1" opacity="0.996078431372549" d="M 80.5 467 L 81.5 469 L 80.5 467 Z " /><path fill="rgb(48,60,66)" stroke="rgb(48,60,66)" stroke-width="1" opacity="0.996078431372549" d="M 431.5 467 L 430.5 469 L 431.5 467 Z " /><path fill="rgb(48,60,66)" stroke="rgb(48,60,66)" stroke-width="1" opacity="0.996078431372549" d="M 87.5 472 L 88.5 474 L 87.5 472 Z " /><path fill="rgb(48,60,66)" stroke="rgb(48,60,66)" stroke-width="1" opacity="0.996078431372549" d="M 424.5 472 L 423.5 474 L 424.5 472 Z " /><path fill="rgb(48,60,66)" stroke="rgb(48,60,66)" stroke-width="1" opacity="0.996078431372549" d="M 91.5 475 L 92.5 477 L 91.5 475 Z " /><path fill="rgb(48,60,66)" stroke="rgb(48,60,66)" stroke-width="1" opacity="0.996078431372549" d="M 420.5 475 L 419.5 477 L 420.5 475 Z " /><path fill="rgb(48,60,66)" stroke="rgb(48,60,66)" stroke-width="1" opacity="0.996078431372549" d="M 95.5 478 L 96.5 480 L 95.5 478 Z " /><path fill="rgb(48,60,66)" stroke="rgb(48,60,66)" stroke-width="1" opacity="0.996078431372549" d="M 416.5 478 L 415.5 480 L 416.5 478 Z " /><path fill="rgb(48,60,66)" stroke="rgb(48,60,66)" stroke-width="1" opacity="0.996078431372549" d="M 99.5 481 L 100.5 483 L 99.5 481 Z " /><path fill="rgb(48,60,66)" stroke="rgb(48,60,66)" stroke-width="1" opacity="0.996078431372549" d="M 412.5 481 L 411.5 483 L 412.5 481 Z " /><path fill="rgb(48,60,66)" stroke="rgb(48,60,66)" stroke-width="1" opacity="0.996078431372549" d="M 106.5 486 L 107.5 488 L 106.5 486 Z " /><path fill="rgb(48,60,66)" stroke="rgb(48,60,66)" stroke-width="1" opacity="0.996078431372549" d="M 405.5 486 L 404.5 488 L 405.5 486 Z " /><path fill="rgb(48,60,66)" stroke="rgb(48,60,66)" stroke-width="1" opacity="0.996078431372549" d="M 223.5 500 L 224 502.5 L 223 502.5 L 223.5 500 Z " /><path fill="rgb(48,60,66)" stroke="rgb(48,60,66)" stroke-width="1" opacity="0.996078431372549" d="M 288.5 500 L 289 502.5 L 288 502.5 L 288.5 500 Z " /><path fill="rgb(48,60,66)" stroke="rgb(48,60,66)" stroke-width="1" opacity="0.996078431372549" d="M 200.5 511 L 209 511.5 L 200.5 512 L 200.5 511 Z " /><path fill="rgb(48,60,66)" stroke="rgb(48,60,66)" stroke-width="1" opacity="0.996078431372549" d="M 298.5 511 L 301 511.5 L 298.5 512 L 298.5 511 Z " /><path fill="rgb(48,60,66)" stroke="rgb(48,60,66)" stroke-width="1" opacity="0.996078431372549" d="M 303.5 511 L 312 511.5 L 303.5 512 L 303.5 511 Z " /><path fill="rgb(48,60,66)" stroke="rgb(48,60,66)" stroke-width="1" opacity="1" d="M 252.5 1 Q 262.6 -0.6 265 5.5 L 416 308.5 Q 424.4 322.6 436.5 333 Q 445 341.5 461.5 342 L 476.5 339 Q 485.5 335.5 491 328.5 L 495.5 322 L 501.5 320 L 505.5 321 L 510 325.5 L 511 334.5 Q 497.1 358.6 497 396.5 L 500 413.5 Q 503.5 425.5 511 433.5 L 511 440.5 L 506.5 446 L 499.5 448 L 487.5 448 L 470.5 451 L 448.5 458 L 431.5 467 L 397.5 492 Q 383.8 500.3 366.5 505 L 338.5 510 L 303.5 511 L 301.5 512 L 293.5 510 L 290 506.5 L 289 497.5 L 292.5 493 Q 335.1 479.1 362 449.5 Q 369.6 440.6 374 428.5 L 376 420.5 L 376 403.5 L 369 379.5 L 340 313.5 Q 296 224 246.5 140 Q 244.3 139.3 245 141.5 Q 196.9 240.4 155 345.5 L 137 398.5 L 136 403.5 L 136 420.5 L 143 439.5 Q 151.3 453.2 163.5 463 L 185.5 478 L 221 494.5 Q 224.4 497.1 223 504.5 L 219.5 509 L 209.5 512 L 208.5 511 L 183.5 511 L 182.5 510 L 165.5 509 L 149.5 506 L 130.5 500 L 114.5 492 L 80.5 467 L 63.5 458 L 49.5 453 L 31.5 449 L 7.5 447 L 2 442.5 L 1 433.5 Q 8.5 425.5 12 413.5 L 15 396.5 L 15 384.5 L 10 356.5 L 1 334.5 L 1 326.5 Q 3.4 320.4 11.5 320 L 19 324.5 L 26.5 334 Q 36.8 342.2 55.5 342 Q 76 337.5 86 322.5 L 97 306.5 L 247 5.5 L 250.5 2 L 252.5 1 Z " /></svg>